# xmcd CD database file
#
# Track frame offsets:
#	150
#	30965
#	54490
#	95954
#	154247
#	182309
#
# Disc length: 2610 seconds
#
# Revision: 0
# Processed by: cddbd v1.5.2PL0 Copyright (c) Steve Scherf et al.
# Submitted via: CDex 1.51
#
DISCID=410a3006
DTITLE=Mike Longo - New York '78
DYEAR=1997
DGENRE=Jazz
TTITLE0=New York 78
TTITLE1=The Party
TTITLE2=Sand in your Blues
TTITLE3=A point beyond
TTITLE4=Down under
TTITLE5=Keep searchin'
EXTD=YEAR: 1997
EXTT0=
EXTT1=
EXTT2=
EXTT3=
EXTT4=
EXTT5=
PLAYORDER=
